PERFORMER "Ajattara"
TITLE "Tyhjyys"
REM DATE 2004
REM DISCNUMBER 1
REM TOTALDISCS 1
REM GENRE "Black metal; Dark metal"
FILE "01 - Intro.flac" WAVE
  TRACK 01 AUDIO
    PERFORMER "Ajattara"
    TITLE "Intro"
    INDEX 01 00:00:00
FILE "02 - Sortajan kaipuu.flac" WAVE
  TRACK 02 AUDIO
    PERFORMER "Ajattara"
    TITLE "Sortajan kaipuu"
    INDEX 01 00:00:00
FILE "03 - Katumuksen kyinen koura.flac" WAVE
  TRACK 03 AUDIO
    PERFORMER "Ajattara"
    TITLE "Katumuksen kyinen koura"
    INDEX 01 00:00:00
FILE "04 - Naaras.flac" WAVE
  TRACK 04 AUDIO
    PERFORMER "Ajattara"
    TITLE "Naaras"
    INDEX 01 00:00:00
FILE "05 - Armon arvet.flac" WAVE
  TRACK 05 AUDIO
    PERFORMER "Ajattara"
    TITLE "Armon arvet"
    INDEX 01 00:00:00
  TRACK 06 AUDIO
    PERFORMER "Ajattara"
    TITLE "Pahan tuoma"
    INDEX 00 03:22:47
FILE "06 - Pahan tuoma.flac" WAVE
    INDEX 01 00:00:00
FILE "07 - Harhojen renki.flac" WAVE
  TRACK 07 AUDIO
    PERFORMER "Ajattara"
    TITLE "Harhojen renki"
    INDEX 01 00:00:00
FILE "08 - Langennut.flac" WAVE
  TRACK 08 AUDIO
    PERFORMER "Ajattara"
    TITLE "Langennut"
    INDEX 01 00:00:00
  TRACK 09 AUDIO
    PERFORMER "Ajattara"
    TITLE "Uhrit"
    INDEX 00 02:58:33
FILE "09 - Uhrit.flac" WAVE
    INDEX 01 00:00:00
FILE "10 - Tyhjyydesta.flac" WAVE
  TRACK 10 AUDIO
    PERFORMER "Ajattara"
    TITLE "Tyhjyydestä"
    INDEX 01 00:00:00
FILE "11 - Outro.flac" WAVE
  TRACK 11 AUDIO
    PERFORMER "Ajattara"
    TITLE "Outro"
    INDEX 01 00:00:00
